<svg xmlns="http://www.w3.org/2000/svg"  viewBox="0 0 100 100" width="100px" height="100px" baseProfile="basic"><path fill="#316db0" d="M71.921,25.357C70.479,11.873,56.86,11.319,46.045,11.71c-4.854,0.175-11.139-1.084-15.466,1.668	c-1.941,1.235-2.812,3.112-3.241,5.177c-0.204,0.356-0.384,0.738-0.507,1.179c-2.095,7.527-4.659,15.135-5.618,22.921	c-0.227,1.074-0.448,2.15-0.659,3.227c-0.551,1.743-1.019,3.519-1.221,5.3c-0.689,1.402-1.029,2.981-1.254,4.593	c-0.388,2.788-1.27,5.322-1.776,8.039c-1.455,2.571-0.895,6.111,2.849,7.039c6.85,1.699,17.246,2.493,19.093-6.297	c2.171-10.331,1.803-21.541,6.633-31.221c0.821-1.646,0.696-3.235,0.036-4.531c2.131-0.673,5.62-0.033,7.587,0.011	c3.627,0.081,8.555-0.818,11.895,0.858C67.432,31.197,72.355,29.418,71.921,25.357z"/><path fill="#99c0d3" d="M75.72,26.29c-3.584-0.895-7.314-0.791-10.97-0.672c-5.6,0.183-11.193-0.039-16.794-0.042	c-0.883-0.001-1.712,0.367-2.345,0.944c-1.037,0.437-1.715,1.345-1.986,2.359c-0.352,0.458-0.653,0.999-0.879,1.639	c-2.404,6.817-3.424,14.372-5.117,21.411c-1.342,5.581-2.363,11.251-3.274,16.93c-1.387,3.661-3.447,8.46-2.231,12.295	c1.355,4.273,5.471,3.517,8.987,3.27c2.951-0.207,5.637-0.32,7.393-2.435c1.159-0.794,2.006-2.09,2.115-3.881	c0.047-0.771,0.117-1.539,0.196-2.305c0.187-0.998,0.333-2.015,0.46-3.04c0.542-2.605,1.342-5.167,2.125-7.738	c7.965-1.052,16.989,0.234,23.959-4.09c6.202-3.847,9.717-11.721,9.925-18.859C87.502,34.559,83.066,28.124,75.72,26.29z M50.283,26.32c-0.066-0.004-0.133-0.011-0.199-0.014C50.125,26.277,50.194,26.278,50.283,26.32z"/><path fill="#3259a5" d="M69.823,25.042c-2.711-0.174-5.451,0.235-8.173,0.625c-1.143-0.022-2.285-0.044-3.427-0.057	c-3.817-0.314-7.827-1.125-11.534,0.134c-1.784-0.328-3.796,0.44-4.612,2.698c-0.725,2.005-1.078,4.025-1.34,6.077	c-0.756,2.789-1.538,5.636-1.857,8.521c-0.314,1.25-0.579,2.516-0.774,3.806c-0.008,0.026-0.017,0.052-0.025,0.077	c0.004,0,0.009,0.001,0.013,0.002c-0.014,0.096-0.029,0.192-0.043,0.288c-0.924,1.546-0.028,3.695,1.374,4.572	c2.548,1.594,5.692,1.105,8.752-0.042c2.198-0.271,4.27-0.775,6.216-1.49c9.501-2.041,18.982-9.232,18.321-19.866	C74.032,28.237,72.763,25.23,69.823,25.042z"/><path d="M34.654,83.403c0,0,0.087,0.197,0.256,0.579c0.182,0.37,0.485,0.93,1.079,1.461c0.588,0.53,1.493,0.979,2.651,1.078	c1.152,0.134,2.502-0.011,4.039-0.203c1.549-0.195,3.261-0.321,4.982-0.846c0.85-0.269,1.699-0.633,2.422-1.184	c0.703-0.549,1.358-1.281,1.631-2.143c0.665-1.911,1.045-4.272,1.455-6.697c0.192-1.23,0.389-2.495,0.592-3.792	c0.103-0.655,0.208-1.318,0.314-1.989c0.058-0.339,0.116-0.68,0.174-1.023c0.019-0.133,0.086-0.459,0.142-0.697l0.173-0.778	c0.18-0.388,0.288-0.804,0.636-1.088c0.351-0.243,0.774-0.385,1.226-0.49c0.227-0.051,0.458-0.094,0.695-0.127l0.633-0.087	l0.956-0.105c1.269-0.123,2.542-0.203,3.836-0.274c1.275-0.065,2.571-0.132,3.89-0.199c1.188-0.117,2.577-0.298,3.853-0.514	c2.595-0.448,5.18-1.144,7.502-2.376c1.14-0.611,2.209-1.376,3.206-2.252c0.985-0.894,1.866-1.93,2.659-3.052	c1.555-2.268,2.705-4.938,3.299-7.793c0.299-1.424,0.5-2.89,0.524-4.369c0.029-1.436-0.119-2.851-0.476-4.226	c-0.703-2.744-2.278-5.255-4.543-6.983c-1.128-0.867-2.416-1.542-3.806-2c-0.697-0.209-1.412-0.422-2.187-0.544l-0.578-0.095	c-0.428-0.065-0.864-0.117-1.303-0.161l-2.648-0.24c0.009-0.439,0.019-0.886,0.029-1.337c-0.011-0.442,0.07-0.956-0.033-1.293	l-0.299-1.749l-0.364-1.119l-0.174-0.561c-0.066-0.182-0.169-0.341-0.25-0.513l-0.5-1.02c-0.824-1.242-1.819-2.344-3.084-3.197	c-2.566-1.669-5.842-2.526-9.18-2.881c-1.663-0.213-3.368-0.271-5.059-0.32c-0.852-0.004-1.701-0.008-2.545-0.012	c-0.875,0.011-1.746,0.022-2.613,0.033c-3.641-0.044-6.882-0.467-9.786-0.114c-1.441,0.165-2.73,0.547-3.809,1.16	c-0.957,0.536-1.78,1.533-2.45,2.72c-1.341,2.392-2.135,5.246-2.807,8.005c-0.674,2.767-1.164,5.585-1.953,8.26	c-0.725,2.599-1.422,5.098-2.088,7.488c-1.319,4.772-2.47,9.099-3.44,12.91c-0.473,1.906-0.914,3.682-1.32,5.321	c-0.195,0.819-0.382,1.603-0.561,2.352c-0.087,0.374-0.172,0.74-0.255,1.096c-0.093,0.324-0.124,0.783-0.362,1.107	c-0.626,1.146-0.788,2.367-0.57,3.355c0.187,1.005,0.759,1.729,1.289,2.191c0.541,0.467,1.056,0.697,1.398,0.838	c0.351,0.127,0.532,0.192,0.532,0.192s-0.187-0.047-0.55-0.14c-0.357-0.108-0.901-0.288-1.512-0.723	c-0.597-0.429-1.292-1.152-1.601-2.245c-0.339-1.07-0.28-2.458,0.314-3.802c0.16-0.266,0.141-0.547,0.212-0.933	c0.053-0.363,0.108-0.735,0.165-1.116c0.118-0.763,0.242-1.562,0.372-2.397c0.281-1.671,0.587-3.483,0.914-5.426	c0.69-3.887,1.543-8.302,2.564-13.164c0.525-2.431,1.073-4.974,1.644-7.619c0.604-2.558,0.933-5.322,1.491-8.251	c0.572-2.917,1.216-5.994,2.774-9.114c0.788-1.53,1.904-3.169,3.696-4.311c1.657-1.044,3.528-1.624,5.329-1.897	c3.615-0.548,7.112-0.171,10.323-0.244c0.849-0.033,1.702-0.067,2.559-0.101c0.886-0.024,1.778-0.049,2.68-0.052	c1.808,0.01,3.643,0.033,5.523,0.234c3.722,0.346,7.73,1.195,11.394,3.517c1.816,1.191,3.389,2.84,4.606,4.727l0.757,1.489	c0.119,0.251,0.26,0.497,0.357,0.754l0.257,0.78l0.5,1.569l0.141,0.791l0.038,0.226l0.002,0.025c0.001,0.023,0,0.006,0,0.012	l0,0.001l0.002,0.001l0.712,0.12c0.948,0.156,1.903,0.428,2.861,0.728c1.895,0.635,3.691,1.589,5.259,2.822	c3.16,2.458,5.286,6.018,6.149,9.703c0.444,1.842,0.593,3.729,0.512,5.547c-0.073,1.778-0.353,3.521-0.756,5.212	c-0.804,3.382-2.268,6.547-4.271,9.261c-1.018,1.345-2.156,2.586-3.43,3.655c-1.286,1.053-2.671,1.958-4.133,2.663	c-2.901,1.383-5.908,2.02-8.739,2.372c-1.445,0.169-2.748,0.279-4.214,0.346c-1.339-0.002-2.657-0.004-3.952-0.005	c-1.273,0.001-2.521,0.01-3.718,0.057c-0.457,0.025-0.909,0.051-1.357,0.075c-0.133,0.013-0.271,0.026-0.401,0.07	c-0.142,0.05-0.117,0.222-0.18,0.333l-0.067,0.225c-0.027,0.094-0.034,0.102-0.081,0.305c-0.076,0.327-0.152,0.652-0.228,0.976	c-0.145,0.656-0.289,1.303-0.431,1.943c-0.286,1.289-0.566,2.546-0.837,3.769c-0.591,2.455-1.093,4.747-2.032,6.943	c-0.515,1.212-1.422,2.063-2.367,2.697c-0.961,0.621-1.984,0.96-2.948,1.185c-1.94,0.428-3.704,0.405-5.238,0.475	c-1.548,0.065-2.972,0.1-4.186-0.15c-1.221-0.211-2.175-0.794-2.738-1.41c-0.574-0.619-0.822-1.216-0.971-1.606	C34.722,83.608,34.654,83.403,34.654,83.403z"/></svg>